<svg width="34" height="20" viewBox="0 0 34 20" fill="none" xmlns="http://www.w3.org/2000/svg">
<rect width="20" height="20" fill="white"/>
<path fill-rule="evenodd" clip-rule="evenodd" d="M10 3.125C10.2379 3.125 10.4552 3.26005 10.5605 3.47336L12.3464 7.09154L16.3404 7.67532C16.5758 7.70972 16.7712 7.87473 16.8445 8.10098C16.9179 8.32723 16.8565 8.57552 16.6861 8.74147L13.7966 11.5559L14.4785 15.5318C14.5187 15.7663 14.4223 16.0033 14.2299 16.1432C14.0374 16.283 13.7822 16.3014 13.5716 16.1907L10 14.3124L6.42843 16.1907C6.21785 16.3014 5.96267 16.283 5.77018 16.1432C5.5777 16.0033 5.48129 15.7663 5.52151 15.5318L6.20344 11.5559L3.31394 8.74147C3.14355 8.57552 3.08213 8.32723 3.15549 8.10098C3.22885 7.87473 3.42428 7.70972 3.65963 7.67532L7.6536 7.09154L9.43958 3.47336C9.54487 3.26005 9.76213 3.125 10 3.125ZM10 5.16203L8.62921 7.93914C8.53825 8.12342 8.36251 8.25121 8.15916 8.28093L5.09278 8.72913L7.3111 10.8898C7.45852 11.0334 7.52581 11.2403 7.49102 11.4432L6.96763 14.4948L9.70911 13.0531C9.89122 12.9573 10.1088 12.9573 10.2909 13.0531L13.0324 14.4948L12.509 11.4432C12.4742 11.2403 12.5415 11.0334 12.6889 10.8898L14.9073 8.72913L11.8409 8.28093C11.6375 8.25121 11.4618 8.12342 11.3708 7.93914L10 5.16203Z" fill="#F2C94C"/>
<path d="M6.5 11L4 8H10H16L13.5 11V14.5L13 15.5L10 14L9 14.5L6.5 15.5V14.5V11Z" fill="#F2C94C"/>
<path d="M25.53 11.05H24.43V13H23.22V11.05H20.19V10.31L23.36 5.95H24.43V10.01H25.53V11.05ZM23.22 8.48L23.31 7.64H23.27L22.93 8.36L21.89 9.71L21.39 10.09L22.03 10.01H23.22V8.48ZM26.0938 12.34C26.0938 12.1067 26.1672 11.9233 26.3138 11.79C26.4605 11.65 26.6538 11.58 26.8938 11.58C27.1472 11.58 27.3472 11.65 27.4938 11.79C27.6405 11.9233 27.7138 12.1067 27.7138 12.34C27.7138 12.5733 27.6405 12.76 27.4938 12.9C27.3472 13.04 27.1472 13.11 26.8938 13.11C26.6538 13.11 26.4605 13.04 26.3138 12.9C26.1672 12.76 26.0938 12.5733 26.0938 12.34ZM30.3348 11.99C30.7748 11.99 31.1114 11.8833 31.3448 11.67C31.5781 11.4567 31.6948 11.1633 31.6948 10.79C31.6948 10.39 31.5581 10.0967 31.2848 9.91C31.0114 9.72333 30.6214 9.63 30.1148 9.63L29.3248 9.66V6H32.7648V7.22H30.4448V8.57L30.8548 8.53C31.1814 8.54333 31.4748 8.60333 31.7348 8.71C32.0014 8.81667 32.2281 8.96667 32.4148 9.16C32.6014 9.34667 32.7448 9.57667 32.8448 9.85C32.9448 10.1167 32.9948 10.4167 32.9948 10.75C32.9948 11.1433 32.9281 11.49 32.7948 11.79C32.6614 12.09 32.4748 12.34 32.2348 12.54C32.0014 12.74 31.7248 12.89 31.4048 12.99C31.0848 13.09 30.7348 13.14 30.3548 13.14C30.0548 13.14 29.7681 13.1133 29.4948 13.06C29.2281 13.0133 29.0014 12.9467 28.8148 12.86L29.1648 11.78C29.3181 11.8467 29.4848 11.9 29.6648 11.94C29.8514 11.9733 30.0748 11.99 30.3348 11.99Z" fill="#F2C94C"/>
</svg>
